HIERARCHY
ROOT Hips
{
  OFFSET 0 0 0
  CHANNELS 6 Xposition Yposition Zposition Zrotation Yrotation Xrotation
  JOINT LeftThigh
  {
    OFFSET 8.409438 0 -5.917753
    CHANNELS 3 Zrotation Yrotation Xrotation
    JOINT LeftLeg
    {
      OFFSET 0 0 -42.358652
      CHANNELS 3 Zrotation Yrotation Xrotation
      JOINT LeftFoot
      {
        OFFSET 0 0 -39.357303
        CHANNELS 3 Zrotation Yrotation Xrotation
      }
    }
  }
  JOINT RightThigh
  {
    OFFSET -8.409438 0 -5.917753
    CHANNELS 3 Zrotation Yrotation Xrotation
    JOINT RightLeg
    {
      OFFSET 0 0 -42.358652
      CHANNELS 3 Zrotation Yrotation Xrotation
      JOINT RightFoot
      {
        OFFSET 0 0 -39.357303
        CHANNELS 3 Zrotation Yrotation Xrotation
      }
    }
  }
  JOINT SpineLow
  {
    OFFSET 0 0 4.719101
    CHANNELS 3 Zrotation Yrotation Xrotation
    JOINT SpineMid
    {
      OFFSET 0 0 12.899191
      CHANNELS 3 Zrotation Yrotation Xrotation
      JOINT Chest
      {
        OFFSET 0 0 12.899191
        CHANNELS 3 Zrotation Yrotation Xrotation
        JOINT LeftShoulder
        {
          OFFSET 7.550562 1.41573 9.438202
          CHANNELS 3 Zrotation Yrotation Xrotation
          JOINT LeftArm
          {
            OFFSET 9.155056 0 4.247191
            CHANNELS 3 Zrotation Yrotation Xrotation
            JOINT LeftForearm
            {
              OFFSET 0 0 25.771955
              CHANNELS 3 Zrotation Yrotation Xrotation
              JOINT LeftHand
              {
                OFFSET 0 0 25.197169
                CHANNELS 3 Zrotation Yrotation Xrotation
              }
            }
          }
        }
        JOINT RightShoulder
        {
          OFFSET -7.550562 1.41573 9.438202
          CHANNELS 3 Zrotation Yrotation Xrotation
          JOINT RightArm
          {
            OFFSET -9.155056 0 4.247191
            CHANNELS 3 Zrotation Yrotation Xrotation
            JOINT RightForearm
            {
              OFFSET 0 0 -25.771955
              CHANNELS 3 Zrotation Yrotation Xrotation
              JOINT RightHand
              {
                OFFSET 0 0 -25.197169
                CHANNELS 3 Zrotation Yrotation Xrotation
              }
            }
          }
        }
        JOINT Neck
        {
          OFFSET 0 0 15.101124
          CHANNELS 3 Zrotation Yrotation Xrotation
          JOINT Head
          {
            OFFSET 0 0 11.325843
            CHANNELS 3 Zrotation Yrotation Xrotation
            End Site
            {
              OFFSET 0 0 14.157303
            }
          }
        }
      }
    }
  }
}
MOTION
Frames: 13
Frame Time: 0.0
0.0  89.887642  0.0  -86.146935  41.868408  -169.192015  25.785884  -62.062364  -39.832027  -20.099886  20.428028  21.610398  0.282115  3.809239  6.85113  22.730919  54.599058  -22.197872  -2.582243  11.37276  15.944447  5.351189  2.60355  0.822857  0.168925  -3.901037  -0.628327  0.568374  -10.657759  -1.759035  0.568374  -10.65776  -1.759035  -19.784252  20.114197  3.333854  97.043757  60.550702  -158.813139  -28.282271  -8.359299  66.868142  71.194834  6.756488  36.687881  -22.96191  14.120035  17.996376  39.999286  48.063873  12.669506  -48.259958  -39.420488  -35.685722  52.50479  4.655981  -10.059337  -48.653865  -3.5568  23.25123  -36.411739  -4.567271  17.28249  
0.0  89.887642  0.0  -86.252706  41.723884  -169.100778  24.912882  -62.187817  -39.391556  -20.964719  20.716549  21.581624  1.267228  4.031858  6.839496  22.898984  56.620078  -21.970183  -10.360788  8.377722  13.72164  5.778017  2.36838  1.366123  0.311882  -3.629995  -0.593675  0.948708  -9.913616  -1.68151  0.948708  -9.913615  -1.681509  -18.902802  18.7018  3.122797  103.024437  59.840261  -153.957858  -28.65787  -7.554384  67.149685  74.196576  5.421245  36.573305  -22.929437  13.211226  17.951766  40.34215  46.780554  12.647924  -48.678374  -38.484803  -35.502778  52.068383  4.590895  -9.150897  -48.307186  -4.05719  24.213362  -36.128041  -5.00945  17.967931  
0.0  89.887642  0.0  -85.602775  41.528272  -168.34986  24.6331  -61.909228  -39.260395  -22.325795  20.861655  21.928229  3.047888  4.254481  6.985916  13.212313  56.204895  -30.798096  -15.652616  5.133157  13.376187  6.404613  2.491196  1.609535  0.579211  -3.382612  -0.675793  1.688269  -9.228267  -1.94022  1.688269  -9.228266  -1.940221  -18.615184  17.694853  3.090246  110.149249  58.89769  -148.921611  -27.948021  -6.972151  67.940855  76.523935  4.080393  35.71  -22.742677  12.163174  19.338424  39.495135  47.078507  11.741506  -48.886024  -38.41198  -35.133897  51.80904  4.699939  -8.401232  -48.235414  -4.258316  25.092607  -36.063873  -5.229541  18.615569  
0.0  89.887642  0.0  -84.278563  41.226627  -167.188095  24.49105  -61.642984  -38.497727  -22.306439  20.527556  22.696251  3.709612  4.190825  7.305373  -0.194483  52.269777  -43.823148  -17.83827  2.590082  15.257296  6.33724  2.367051  1.884406  0.850579  -3.228591  -0.739736  2.437287  -8.796607  -2.147556  2.437287  -8.796608  -2.147556  -18.519273  17.776485  3.070051  117.400345  58.086081  -144.447648  -26.552746  -6.200475  68.783198  77.964007  3.081891  34.656065  -22.36718  11.299185  20.866784  38.303744  48.669316  10.408581  -48.686267  -38.431007  -34.601755  51.8243  4.755894  -7.705735  -48.009794  -4.259844  25.503109  -35.893938  -5.253912  18.925889  
0.0  89.887642  0.0  -82.810612  40.849363  -165.973755  24.817322  -61.814934  -37.926767  -21.2449  20.258916  23.434101  3.010208  3.922701  7.793388  -12.779352  44.193661  -55.540654  -17.490249  0.908244  19.302026  5.544591  2.897531  1.36505  1.021648  -3.092969  -0.746976  2.902762  -8.419882  -2.183543  2.902762  -8.419882  -2.183543  -18.077093  18.171459  3.293077  124.157948  57.230232  -140.588523  -25.312622  -5.534516  69.580983  77.921459  2.445248  33.777251  -21.541402  10.114649  22.030825  37.11893  50.816996  9.018845  -48.033549  -37.807977  -34.158833  51.95363  4.658645  -7.048918  -47.357167  -4.165804  25.659314  -35.407959  -5.166413  19.052373  
0.0  89.887642  0.0  -80.689717  40.425336  -164.732624  25.050032  -62.211624  -36.565226  -20.563244  20.075812  23.785641  2.157632  3.675722  8.260925  -21.5404  34.147939  -63.070898  -16.298922  0.316326  23.896264  5.303284  3.357268  0.957644  1.230237  -3.079832  -0.727768  3.472685  -8.377753  -2.156733  3.472685  -8.377753  -2.156732  -18.082597  19.249253  3.964217  130.717386  56.157224  -137.025255  -24.707655  -4.273208  70.063281  77.390628  1.967511  32.856269  -20.856505  10.165074  22.723724  36.153743  52.394815  7.423162  -47.069616  -36.372356  -33.981291  52.252536  4.470543  -6.403748  -46.702975  -3.506094  25.382689  -34.948325  -4.617083  18.897538  
0.0  89.887642  0.0  -78.140942  39.721397  -163.346374  24.442005  -62.654905  -33.877279  -20.831693  19.64126  23.608089  2.199603  3.74729  8.527553  -28.170594  21.940555  -67.851119  -12.567831  0.525278  28.604944  5.062176  3.778224  0.849051  1.46461  -3.05745  -0.76929  4.120657  -8.305833  -2.299036  4.120657  -8.305833  -2.299036  -18.208969  20.291952  5.670469  136.431641  55.282236  -134.292135  -25.407531  -2.290917  70.232506  77.073974  1.873785  32.545646  -20.081517  10.350176  23.677644  35.535195  53.248886  5.862618  -46.149131  -34.37087  -34.09571  52.613193  4.272293  -6.037895  -46.091937  -2.570198  25.471223  -34.53294  -3.88975  19.038475  
0.0  89.887642  0.0  -75.683708  38.93074  -162.249527  22.147957  -63.176226  -29.642644  -21.063943  19.262034  23.379611  2.899584  3.961975  8.563434  -33.115323  7.662147  -69.226676  -6.06595  2.381284  31.656521  5.345705  4.103424  1.205426  1.749249  -3.13101  -0.789333  4.908497  -8.49461  -2.395926  4.908497  -8.494611  -2.395926  -18.461156  21.204023  7.15026  140.349138  53.887762  -132.563598  -26.578018  0.557829  70.299363  77.145736  2.242541  31.836759  -19.838873  11.242134  24.417177  35.184377  53.603313  4.354613  -45.51764  -32.485142  -34.526951  52.972962  4.210804  -5.97185  -45.900485  -1.598676  25.453198  -34.43279  -3.145508  19.100119  
0.0  89.887642  0.0  -73.606994  38.188275  -161.47359  19.169629  -63.717177  -25.291862  -20.688791  19.159936  23.393405  3.728682  4.169865  8.591641  -38.505684  -5.669058  -70.185064  2.484402  3.526266  35.961487  5.161298  4.175785  1.546147  1.943078  -3.169295  -0.737485  5.436128  -8.59591  -2.282005  5.436127  -8.59591  -2.282006  -18.442816  21.079106  7.635409  142.08956  51.923125  -132.205802  -28.3962  2.916876  69.416131  77.27818  2.310773  32.145351  -19.386234  11.788644  24.872618  34.890562  53.732265  3.038324  -45.118741  -31.104601  -35.289488  53.489083  4.294336  -5.988473  -45.665754  -1.036595  25.607142  -34.281528  -2.722072  19.258692  
0.0  89.887642  0.0  -71.922182  37.462103  -161.014181  17.683832  -64.365975  -22.653104  -20.073899  19.44373  23.682881  3.957932  4.293109  8.514447  -43.687506  -14.56803  -69.506805  9.957417  2.845919  40.106293  4.463646  4.137934  1.682702  2.106395  -3.178172  -0.569204  5.863262  -8.62913  -1.842205  5.863262  -8.629131  -1.842204  -18.6519  20.623717  7.112192  141.995201  50.655661  -133.029848  -29.951604  4.910078  68.720733  77.54902  2.944782  31.953942  -19.039108  11.624449  24.629105  35.080423  53.610999  3.441538  -44.654125  -30.54834  -37.32814  54.028606  4.430732  -5.985365  -45.530818  -1.121645  25.717389  -34.176831  -2.788891  19.334937  
0.0  89.887642  0.0  -70.818355  37.116729  -160.942359  17.733533  -64.818214  -21.753168  -19.676873  19.923518  23.952263  3.634419  4.379621  8.395073  -41.315041  -14.809123  -68.283848  9.393136  5.365123  42.76994  3.782918  3.945877  1.565635  2.150751  -3.182332  -0.412727  5.964792  -8.653382  -1.418864  5.964792  -8.653382  -1.418864  -18.718829  20.486247  6.602373  140.756114  50.034336  -134.438385  -31.244324  5.220287  67.604647  77.683465  2.986969  32.208733  -18.628387  11.73163  24.463839  34.78037  53.575987  2.432441  -44.389576  -29.521347  -38.705361  54.701577  4.57328  -5.925433  -45.395657  -1.195755  25.759022  -34.072127  -2.842176  19.360215  
0.0  89.887642  0.0  -70.190119  37.26432  -160.997464  24.888841  -65.326887  -26.377814  -22.535849  21.386536  22.176123  3.098548  4.500361  8.24959  -36.702894  -9.997767  -71.319756  5.157554  6.691735  48.883563  3.120761  3.931343  1.462756  2.134155  -3.157101  -0.327529  5.907142  -8.592565  -1.180413  5.907142  -8.592565  -1.180413  -18.694084  20.581858  6.547085  138.758515  49.975459  -136.022997  -31.153762  4.437415  67.362975  77.919787  3.323351  31.633354  -19.684114  12.689879  24.894636  35.14508  53.877519  0.56561  -44.017369  -28.321508  -40.403603  55.479781  4.656597  -5.813619  -45.402772  -1.144641  25.777063  -34.079794  -2.805207  19.377752  
0.0  89.887642  0.0  -70.008677  37.859015  -161.276926  26.693825  -64.77538  -27.453893  -23.936674  22.038802  21.601004  3.059774  4.561454  8.135187  -33.576924  -3.544734  -74.321946  0.452124  6.501394  55.073829  2.539104  3.945682  1.370633  2.00177  -3.130154  -0.338074  5.543902  -8.52082  -1.189657  5.543902  -8.52082  -1.189657  -18.196423  21.038552  7.23404  136.095986  50.197609  -137.826084  -30.848229  2.480082  66.934197  78.578696  3.056092  31.969574  -19.207632  13.138017  25.274061  35.229142  53.97826  0.20414  -43.595029  -26.925418  -42.285279  56.403426  4.721746  -5.612967  -45.357257  -0.670218  25.842199  -34.066518  -2.449416  19.462645  
